<svg width="381" height="381" viewBox="0 0 381 381" fill="none" xmlns="http://www.w3.org/2000/svg">
<path d="M205.966 305.075C204.73 305.083 203.535 304.632 202.612 303.81C201.689 302.989 201.102 301.854 200.966 300.625C192.846 226.465 226.506 193.445 246.626 173.715C253.756 166.715 259.916 160.715 260.946 155.875C262.426 148.601 263.233 141.207 263.356 133.785C263.356 132.459 263.883 131.187 264.821 130.25C265.759 129.312 267.03 128.785 268.356 128.785C269.682 128.785 270.954 129.312 271.892 130.25C272.83 131.187 273.356 132.459 273.356 133.785C273.244 141.917 272.363 150.019 270.726 157.985C269.056 165.715 262.246 172.395 253.626 180.855C233.626 200.505 203.316 230.205 210.906 299.535C211.049 300.853 210.663 302.174 209.832 303.208C209.002 304.241 207.794 304.902 206.476 305.045L205.966 305.075ZM285.866 157.525L308.456 152.415C309.114 152.288 309.739 152.031 310.296 151.657C310.852 151.284 311.327 150.803 311.694 150.242C312.06 149.682 312.31 149.053 312.429 148.394C312.548 147.735 312.534 147.059 312.386 146.405C312.239 145.752 311.962 145.135 311.571 144.591C311.181 144.047 310.685 143.587 310.113 143.238C309.541 142.889 308.905 142.658 308.243 142.56C307.58 142.462 306.905 142.497 306.256 142.665L283.666 147.775C282.464 148.044 281.403 148.747 280.686 149.749C279.97 150.752 279.65 151.984 279.786 153.209C279.922 154.433 280.506 155.564 281.425 156.385C282.344 157.206 283.534 157.658 284.766 157.655C285.137 157.656 285.506 157.612 285.866 157.525ZM214.226 363.825C219.796 349.595 264.226 317.715 288.036 300.585C299.396 292.435 307.596 286.585 310.806 283.475C317.906 276.705 318.316 264.005 312.186 241.005C312.033 240.355 311.75 239.741 311.356 239.202C310.961 238.662 310.462 238.207 309.889 237.864C309.315 237.521 308.678 237.296 308.017 237.203C307.355 237.11 306.681 237.15 306.035 237.322C305.389 237.494 304.784 237.794 304.255 238.203C303.727 238.613 303.287 239.125 302.96 239.708C302.632 240.291 302.426 240.933 302.351 241.598C302.277 242.262 302.336 242.934 302.526 243.575C307.316 261.575 307.786 272.575 303.906 276.245C301.196 278.825 292.396 285.145 282.206 292.465C244.976 319.195 211.056 344.465 204.916 360.175C204.432 361.41 204.459 362.786 204.989 364.001C205.52 365.217 206.512 366.171 207.746 366.655C208.326 366.883 208.943 367.001 209.566 367.005C210.573 367.006 211.556 366.703 212.388 366.135C213.219 365.568 213.86 364.763 214.226 363.825ZM187.226 363.525C192.046 348.445 214.016 323.125 227.136 307.995C230.006 304.685 232.486 301.825 234.456 299.455C245.926 285.735 262.206 262.535 262.896 261.555C263.381 260.862 263.683 260.057 263.772 259.216C263.861 258.375 263.735 257.525 263.406 256.745C253.006 231.935 255.286 211.745 255.316 211.445C255.481 210.128 255.115 208.8 254.301 207.753C253.486 206.705 252.288 206.025 250.971 205.86C249.655 205.696 248.326 206.061 247.279 206.876C246.232 207.691 245.551 208.888 245.386 210.205C245.276 211.105 242.846 231.795 253.136 258.025C248.736 264.235 235.956 282.025 226.786 293.025C224.866 295.315 222.416 298.145 219.576 301.415C205.076 318.145 183.146 343.415 177.696 360.415C177.496 361.041 177.42 361.7 177.475 362.355C177.529 363.01 177.712 363.648 178.013 364.232C178.313 364.816 178.727 365.335 179.228 365.76C179.73 366.184 180.31 366.505 180.936 366.705C181.428 366.862 181.94 366.943 182.456 366.945C183.516 366.957 184.551 366.632 185.414 366.018C186.277 365.403 186.922 364.53 187.256 363.525H187.226ZM268.426 57.5252C268.746 56.2431 268.545 54.8866 267.867 53.7523C267.189 52.618 266.09 51.7981 264.81 51.4717C263.529 51.1453 262.172 51.339 261.034 52.0105C259.896 52.682 259.07 53.7766 258.736 55.0552C258.736 55.1452 255.846 64.3452 237.936 61.3552C237.282 61.2294 236.608 61.2358 235.956 61.374C235.304 61.5122 234.686 61.7795 234.138 62.1601C233.591 62.5408 233.125 63.027 232.769 63.5903C232.412 64.1536 232.171 64.7825 232.061 65.4401C231.951 66.0977 231.974 66.7707 232.128 67.4194C232.282 68.0681 232.564 68.6795 232.957 69.2176C233.351 69.7557 233.848 70.2097 234.42 70.5527C234.992 70.8958 235.626 71.121 236.286 71.2152C238.988 71.6828 241.724 71.9237 244.466 71.9352C260.316 71.9752 267.066 63.0252 268.456 57.5652L268.426 57.5252ZM325.986 80.2152C328.455 76.3371 329.784 71.8436 329.823 67.2467C329.862 62.6499 328.609 58.1346 326.206 54.2152C319.416 42.6252 305.976 43.2152 299.826 45.1052C298.559 45.4951 297.498 46.3726 296.877 47.5447C296.256 48.7168 296.127 50.0875 296.516 51.3552C296.906 52.623 297.784 53.6839 298.956 54.3046C300.128 54.9254 301.499 55.0551 302.766 54.6652C303.186 54.5352 313.126 51.6652 317.576 59.2652C319.002 61.5334 319.777 64.1494 319.818 66.828C319.858 69.5066 319.162 72.1449 317.806 74.4552C317.4 74.9908 317.106 75.6028 316.941 76.2547C316.776 76.9066 316.745 77.585 316.849 78.2493C316.952 78.9137 317.189 79.5502 317.544 80.121C317.9 80.6918 318.367 81.185 318.917 81.5712C319.467 81.9575 320.09 82.2287 320.748 82.3687C321.405 82.5087 322.084 82.5147 322.744 82.3863C323.404 82.2578 324.031 81.9975 324.589 81.6211C325.146 81.2446 325.621 80.7597 325.986 80.1952V80.2152ZM336.246 345.125C338.126 318.125 342.476 295.595 346.686 273.825C352.866 241.905 358.196 214.335 353.416 182.825C350.176 161.415 355.416 140.035 360.496 119.365C364.496 103.215 368.206 87.9652 368.066 72.9552C367.883 62.6635 364.825 52.6281 359.24 43.9821C353.654 35.336 345.763 28.4236 336.456 24.0252C316.836 14.7026 294.669 12.1833 273.456 16.8652C243.396 23.3152 231.136 31.2752 221.296 37.6752C215.556 41.4052 210.606 44.6252 203.026 46.9752C183.116 53.1352 175.256 62.9752 172.666 66.1852C172.516 66.3652 172.406 66.5152 172.306 66.6252C167.896 71.7752 173.386 78.6252 191.066 95.3752C197.786 101.745 207.576 104.185 216.216 106.375C222.786 108.015 228.986 109.565 232.636 112.375C248.736 124.965 285.326 131.585 312.716 105.815C313.639 104.897 314.167 103.655 314.188 102.353C314.21 101.052 313.722 99.7933 312.83 98.8452C311.938 97.8972 310.712 97.3344 309.411 97.2765C308.111 97.2186 306.839 97.6702 305.866 98.5352C281.866 121.075 250.366 113.535 238.796 104.535C233.476 100.375 226.266 98.5352 218.626 96.6752C210.826 94.7352 202.756 92.6752 197.946 88.1552C187.256 78.0352 183.196 73.1552 181.676 71.0252C184.676 67.5852 191.456 61.0252 205.976 56.5652C214.896 53.8052 220.646 50.0652 226.746 46.1052C236.376 39.8352 247.296 32.7452 275.556 26.6752C294.598 22.4537 314.504 24.6877 332.136 33.0252C339.792 36.5626 346.288 42.1982 350.871 49.2782C355.453 56.3581 357.934 64.5922 358.026 73.0252C358.156 86.7852 354.556 101.445 350.746 116.955C345.436 138.575 339.946 160.955 343.486 184.305C348.006 214.135 342.826 240.925 336.836 271.945C332.766 292.945 328.156 316.815 326.226 344.445C326.136 345.767 326.573 347.071 327.443 348.07C328.313 349.07 329.545 349.683 330.866 349.775H331.216C332.489 349.786 333.718 349.311 334.653 348.447C335.587 347.583 336.157 346.395 336.246 345.125ZM43.2464 315.945C43.8991 315.873 44.5312 315.673 45.1065 315.357C45.6819 315.04 46.1893 314.613 46.5997 314.101C47.0102 313.588 47.3157 313 47.4987 312.369C47.6817 311.738 47.7387 311.078 47.6664 310.425C41.4664 253.715 66.2364 229.425 82.6164 213.355C89.8264 206.275 95.5264 200.695 96.9564 194.055C98.3158 187.432 99.0457 180.696 99.1364 173.935C99.1364 172.609 98.6096 171.337 97.6719 170.4C96.7343 169.462 95.4625 168.935 94.1364 168.935C92.8103 168.935 91.5386 169.462 90.6009 170.4C89.6632 171.337 89.1364 172.609 89.1364 173.935C89.0225 179.984 88.353 186.009 87.1364 191.935C86.3364 195.635 81.3564 200.525 75.5764 206.195C58.8864 222.565 30.9564 249.955 37.6864 311.495C37.8201 312.726 38.4053 313.863 39.3289 314.687C40.2525 315.51 41.4488 315.962 42.6864 315.955L43.2464 315.945ZM108.736 194.355L127.356 190.145C128.651 189.852 129.776 189.057 130.483 187.935C131.191 186.812 131.424 185.454 131.131 184.16C130.838 182.866 130.043 181.741 128.921 181.033C127.798 180.325 126.441 180.092 125.146 180.385L106.526 184.605C105.324 184.874 104.263 185.577 103.546 186.579C102.83 187.582 102.51 188.814 102.646 190.038C102.782 191.263 103.366 192.394 104.285 193.215C105.204 194.036 106.394 194.488 107.626 194.485C107.994 194.485 108.359 194.441 108.716 194.355H108.736ZM50.2964 363.825C54.7964 352.345 91.2464 326.165 110.826 312.105C120.206 305.365 126.986 300.495 129.676 297.925C135.796 292.095 136.206 281.365 131.056 262.065C130.903 261.415 130.62 260.801 130.226 260.262C129.831 259.722 129.332 259.267 128.759 258.924C128.185 258.581 127.548 258.356 126.887 258.263C126.225 258.17 125.551 258.21 124.905 258.382C124.259 258.554 123.654 258.854 123.125 259.263C122.597 259.673 122.157 260.185 121.83 260.768C121.502 261.351 121.296 261.993 121.221 262.658C121.147 263.322 121.206 263.994 121.396 264.635C126.456 283.635 124.396 289.115 122.776 290.695C120.586 292.775 113.356 297.965 104.986 303.985C74.1964 326.095 46.1364 347.035 40.9864 360.175C40.5024 361.41 40.5286 362.786 41.0594 364.001C41.5901 365.217 42.5818 366.171 43.8164 366.655C44.3967 366.882 45.0135 367 45.6364 367.005C46.643 367.006 47.6263 366.703 48.4577 366.135C49.2892 365.568 49.93 364.763 50.2964 363.825ZM28.0864 363.525C32.0164 351.275 50.0864 330.525 60.8064 318.065C63.1764 315.335 65.2264 312.975 66.8564 311.065C76.3264 299.725 89.7664 280.575 90.3364 279.765C90.8197 279.073 91.1198 278.27 91.209 277.431C91.2982 276.592 91.1734 275.743 90.8464 274.965C82.3764 254.755 84.2164 238.285 84.2364 238.075C84.3598 236.78 83.9732 235.487 83.1586 234.472C82.344 233.457 81.1658 232.799 79.8742 232.639C78.5826 232.479 77.2794 232.829 76.2416 233.614C75.2038 234.4 74.5132 235.559 74.3164 236.845C74.2264 237.585 72.2164 254.615 80.5864 276.235C76.7264 281.665 66.5364 295.845 59.1764 304.655C57.6064 306.535 55.5964 308.865 53.2564 311.555C41.2564 325.395 23.1164 346.305 18.5664 360.555C18.3657 361.181 18.2904 361.84 18.3446 362.495C18.3989 363.15 18.5817 363.788 18.8826 364.372C19.1835 364.956 19.5966 365.475 20.0983 365.9C20.6 366.324 21.1804 366.645 21.8064 366.845C22.2979 367.002 22.8105 367.083 23.3264 367.085C24.4049 367.09 25.4559 366.746 26.3228 366.104C27.1896 365.463 27.8258 364.558 28.1364 363.525H28.0864ZM89.4764 119.325C92.1194 117.306 94.061 114.508 95.0264 111.325C95.3458 110.043 95.1446 108.687 94.4669 107.552C93.7892 106.418 92.6901 105.598 91.4097 105.272C90.1293 104.945 88.7717 105.139 87.6337 105.811C86.4957 106.482 85.6698 107.577 85.3364 108.855C85.3364 108.925 83.1764 115.735 69.1864 113.395C68.5383 113.288 67.8754 113.309 67.2354 113.457C66.5955 113.606 65.9911 113.879 65.4567 114.261C64.9223 114.643 64.4684 115.127 64.1209 115.684C63.7734 116.242 63.5391 116.862 63.4314 117.51C63.3237 118.158 63.3447 118.821 63.4933 119.461C63.6418 120.101 63.9149 120.706 64.297 121.24C64.6791 121.774 65.1627 122.228 65.7203 122.576C66.2778 122.923 66.8983 123.158 67.5464 123.265C69.8916 123.671 72.2664 123.882 74.6464 123.895C80.6664 123.905 85.6364 122.365 89.4764 119.325ZM142.296 130.325C144.423 126.991 145.572 123.128 145.613 119.173C145.654 115.219 144.584 111.332 142.526 107.955C136.646 97.9552 125.066 98.4152 119.756 100.055C118.489 100.445 117.428 101.323 116.807 102.495C116.186 103.667 116.057 105.037 116.446 106.305C116.836 107.573 117.714 108.634 118.886 109.255C120.058 109.875 121.429 110.005 122.696 109.615C123.496 109.385 130.636 107.465 133.896 113.015C135.002 114.732 135.609 116.722 135.648 118.764C135.687 120.806 135.156 122.818 134.116 124.575C133.726 125.112 133.447 125.72 133.295 126.366C133.142 127.012 133.12 127.681 133.229 128.335C133.337 128.99 133.575 129.616 133.928 130.177C134.282 130.739 134.743 131.224 135.285 131.606C135.828 131.987 136.441 132.257 137.089 132.399C137.737 132.541 138.407 132.553 139.059 132.434C139.712 132.315 140.334 132.067 140.89 131.705C141.445 131.343 141.924 130.874 142.296 130.325ZM150.906 348.185C152.456 325.975 156.046 307.445 159.506 289.535C164.606 263.145 169.016 240.355 165.056 214.215C162.406 196.745 166.716 179.215 170.876 162.215C174.156 148.855 177.256 136.215 177.136 123.755C176.983 115.109 174.416 106.678 169.725 99.4135C165.033 92.1492 158.404 86.3412 150.586 82.6452C134.258 74.8762 115.808 72.7651 98.1464 76.6452C73.2164 81.9952 63.0464 88.6452 54.8664 93.9252C50.1964 96.9252 46.1664 99.5752 40.0364 101.475C23.3664 106.635 16.7664 114.885 14.5864 117.595C14.4764 117.745 14.3864 117.855 14.3064 117.945C10.5764 122.295 15.3064 127.725 18.1464 130.945C20.9864 134.165 24.8064 138.065 29.8364 142.825C35.5364 148.235 43.7264 150.275 50.9464 152.075C56.2664 153.395 61.2964 154.655 64.1564 156.885C77.6664 167.445 108.346 173.025 131.286 151.425C131.842 150.998 132.302 150.459 132.636 149.843C132.97 149.228 133.171 148.548 133.225 147.85C133.28 147.151 133.187 146.449 132.953 145.788C132.718 145.128 132.348 144.524 131.865 144.016C131.383 143.508 130.799 143.107 130.151 142.84C129.504 142.572 128.807 142.443 128.107 142.462C127.406 142.481 126.717 142.646 126.085 142.949C125.453 143.251 124.891 143.682 124.436 144.215C105.086 162.425 79.6364 156.365 70.3164 149.075C65.7764 145.535 59.4664 143.965 53.3664 142.435C47.0464 140.865 40.5064 139.235 36.7064 135.635C28.7664 128.115 25.3164 124.125 23.8364 122.195C26.4564 119.325 31.9564 114.495 42.9864 111.075C50.4464 108.775 55.2464 105.655 60.3164 102.355C68.1964 97.2352 77.1164 91.4352 100.246 86.4752C115.754 83.0565 131.958 84.8929 146.306 91.6952C152.465 94.5391 157.691 99.071 161.378 104.765C165.065 110.459 167.062 117.082 167.136 123.865C167.246 135.085 164.286 147.115 161.136 159.865C156.736 177.765 152.196 196.275 155.136 215.705C158.846 240.145 154.586 262.145 149.656 287.625C146.306 304.985 142.496 324.625 140.906 347.485C140.816 348.807 141.253 350.111 142.124 351.11C142.994 352.11 144.225 352.723 145.546 352.815H145.896C147.167 352.821 148.393 352.342 149.323 351.476C150.254 350.611 150.82 349.423 150.906 348.155V348.185Z" fill="url(#paint0_linear)"/>
<path style="mix-blend-mode:multiply" opacity="0.5" d="M94.1367 168.936C92.8106 168.936 91.5389 169.462 90.6012 170.4C89.6635 171.338 89.1367 172.609 89.1367 173.936C89.0257 179.984 88.3561 186.01 87.1367 191.936L96.9167 194.036C98.2855 187.42 99.0288 180.69 99.1367 173.936C99.1367 172.609 98.6099 171.338 97.6722 170.4C96.7346 169.462 95.4628 168.936 94.1367 168.936Z" fill="url(#paint1_linear)"/>
<path style="mix-blend-mode:multiply" opacity="0.5" d="M260.986 155.895C262.466 148.618 263.272 141.22 263.396 133.795C263.396 132.469 263.923 131.197 264.861 130.259C265.798 129.322 267.07 128.795 268.396 128.795C269.722 128.795 270.994 129.322 271.932 130.259C272.87 131.197 273.396 132.469 273.396 133.795C273.284 141.926 272.403 150.029 270.766 157.995L260.986 155.895Z" fill="url(#paint2_linear)"/>
<g style="mix-blend-mode:darken">
<path d="M284.766 157.665C285.136 157.664 285.505 157.624 285.866 157.545L308.456 152.425C309.114 152.298 309.739 152.04 310.295 151.667C310.851 151.294 311.327 150.812 311.693 150.252C312.06 149.691 312.31 149.063 312.429 148.404C312.548 147.745 312.533 147.068 312.386 146.415C312.238 145.762 311.961 145.145 311.571 144.601C311.18 144.056 310.684 143.596 310.113 143.247C309.541 142.899 308.905 142.668 308.242 142.57C307.58 142.471 306.904 142.507 306.256 142.675L283.666 147.785C282.463 148.053 281.402 148.756 280.686 149.759C279.97 150.762 279.649 151.994 279.786 153.218C279.922 154.443 280.506 155.574 281.425 156.395C282.344 157.215 283.534 157.668 284.766 157.665Z" fill="url(#paint3_linear)" style="mix-blend-mode:multiply"/>
</g>
<g style="mix-blend-mode:darken">
<path d="M107.626 194.486C108 194.487 108.373 194.443 108.736 194.356L127.346 190.146C127.987 190.002 128.593 189.732 129.13 189.354C129.667 188.975 130.124 188.494 130.475 187.939C130.826 187.384 131.064 186.765 131.176 186.117C131.288 185.47 131.271 184.807 131.126 184.166C130.982 183.525 130.713 182.919 130.334 182.382C129.955 181.846 129.475 181.389 128.919 181.038C128.364 180.687 127.745 180.448 127.098 180.337C126.45 180.225 125.787 180.242 125.146 180.386L106.526 184.606C105.324 184.874 104.263 185.577 103.546 186.58C102.83 187.583 102.51 188.815 102.646 190.039C102.782 191.264 103.366 192.395 104.285 193.216C105.204 194.037 106.394 194.489 107.626 194.486Z" fill="url(#paint4_linear)" style="mix-blend-mode:multiply"/>
</g>
<path opacity="0.7" d="M236.988 71.2734C239.75 71.2734 241.988 69.0349 241.988 66.2734C241.988 63.512 239.75 61.2734 236.988 61.2734C234.227 61.2734 231.988 63.512 231.988 66.2734C231.988 69.0349 234.227 71.2734 236.988 71.2734Z" fill="white"/>
<path opacity="0.7" d="M250.376 215.826C253.137 215.826 255.376 213.588 255.376 210.826C255.376 208.065 253.137 205.826 250.376 205.826C247.615 205.826 245.376 208.065 245.376 210.826C245.376 213.588 247.615 215.826 250.376 215.826Z" fill="white"/>
<path opacity="0.7" d="M205.986 305.076C208.748 305.076 210.986 302.838 210.986 300.076C210.986 297.315 208.748 295.076 205.986 295.076C203.225 295.076 200.986 297.315 200.986 300.076C200.986 302.838 203.225 305.076 205.986 305.076Z" fill="white"/>
<path opacity="0.7" d="M68.3662 123.215C71.1276 123.215 73.3662 120.976 73.3662 118.215C73.3662 115.453 71.1276 113.215 68.3662 113.215C65.6048 113.215 63.3662 115.453 63.3662 118.215C63.3662 120.976 65.6048 123.215 68.3662 123.215Z" fill="white"/>
<path opacity="0.7" d="M79.2783 242.617C82.0397 242.617 84.2783 240.379 84.2783 237.617C84.2783 234.856 82.0397 232.617 79.2783 232.617C76.5169 232.617 74.2783 234.856 74.2783 237.617C74.2783 240.379 76.5169 242.617 79.2783 242.617Z" fill="white"/>
<path opacity="0.7" d="M42.6963 315.975C45.4577 315.975 47.6963 313.736 47.6963 310.975C47.6963 308.213 45.4577 305.975 42.6963 305.975C39.9349 305.975 37.6963 308.213 37.6963 310.975C37.6963 313.736 39.9349 315.975 42.6963 315.975Z" fill="white"/>
<defs>
<linearGradient id="paint0_linear" x1="16.3864" y1="101.375" x2="388.586" y2="316.265" gradientUnits="userSpaceOnUse">
<stop stop-color="#44FB44"/>
<stop offset="0.82" stop-color="#00D6FF"/>
<stop offset="0.95" stop-color="#A5FEF1"/>
</linearGradient>
<linearGradient id="paint1_linear" x1="93.1567" y1="194.056" x2="93.1567" y2="168.936" gradientUnits="userSpaceOnUse">
<stop offset="0.421875" stop-color="#00AD00" stop-opacity="0"/>
<stop offset="0.97" stop-color="#00AD00"/>
</linearGradient>
<linearGradient id="paint2_linear" x1="267.186" y1="162.745" x2="267.186" y2="119.655" gradientUnits="userSpaceOnUse">
<stop stop-color="#40F6CE" stop-opacity="0"/>
<stop offset="0.85" stop-color="#00A088"/>
</linearGradient>
<linearGradient id="paint3_linear" x1="277.776" y1="154.125" x2="311.036" y2="146.815" gradientUnits="userSpaceOnUse">
<stop stop-color="#00E3B8"/>
<stop offset="0.59375" stop-color="#40F6CE" stop-opacity="0"/>
</linearGradient>
<linearGradient id="paint4_linear" x1="98.2264" y1="191.246" x2="116.932" y2="187.375" gradientUnits="userSpaceOnUse">
<stop offset="0.14" stop-color="#44FB44"/>
<stop offset="0.84" stop-color="#44FB44" stop-opacity="0"/>
</linearGradient>
</defs>
</svg>
