<svg width="380" height="381" viewBox="0 0 380 381" fill="none" xmlns="http://www.w3.org/2000/svg">
<path d="M245.215 376.796C243.929 376.792 242.687 376.322 241.722 375.472C240.756 374.622 240.132 373.451 239.965 372.175C237.745 355.175 234.585 314.735 253.185 306.745C263.725 302.225 278.745 310.046 303.395 332.915C304.426 333.872 305.036 335.198 305.09 336.604C305.143 338.01 304.636 339.379 303.68 340.41C302.724 341.442 301.397 342.052 299.991 342.105C298.586 342.159 297.216 341.652 296.185 340.695C269.005 315.486 259.985 315.375 257.375 316.495C249.575 319.845 246.745 342.175 250.485 370.805C250.666 372.199 250.287 373.608 249.43 374.722C248.573 375.836 247.308 376.564 245.915 376.745C245.683 376.777 245.449 376.793 245.215 376.796ZM212.875 380.796C213.57 380.746 214.248 380.56 214.871 380.248C215.494 379.937 216.049 379.505 216.505 378.978C216.961 378.452 217.309 377.84 217.529 377.179C217.748 376.518 217.835 375.82 217.785 375.125C215.055 336.755 220.255 292.755 238.025 280.935C251.175 272.185 264.025 280.375 287.595 296.865C295.145 302.155 303.705 308.146 313.035 313.706C313.633 314.062 314.295 314.297 314.985 314.398C315.674 314.498 316.376 314.462 317.051 314.291C317.726 314.12 318.361 313.818 318.919 313.402C319.477 312.986 319.948 312.464 320.305 311.865C320.661 311.267 320.897 310.605 320.997 309.916C321.098 309.227 321.061 308.525 320.89 307.849C320.72 307.174 320.417 306.54 320.001 305.981C319.585 305.423 319.063 304.952 318.465 304.595C309.465 299.236 301.465 293.595 293.675 288.175C271.285 272.485 251.945 258.925 232.145 272.095C221.195 279.385 213.605 294.585 209.595 317.255C205.525 340.255 206.355 363.875 207.205 375.885C207.301 377.223 207.9 378.476 208.881 379.39C209.862 380.305 211.153 380.814 212.495 380.815L212.875 380.796ZM248.875 252.595C280.015 238.215 306.085 207.335 317.125 184.725C317.481 184.097 317.705 183.402 317.782 182.684C317.86 181.966 317.79 181.239 317.577 180.549C317.363 179.859 317.011 179.219 316.542 178.67C316.072 178.121 315.496 177.673 314.847 177.355C314.199 177.037 313.492 176.855 312.77 176.82C312.048 176.785 311.327 176.898 310.651 177.151C309.975 177.405 309.357 177.795 308.837 178.296C308.316 178.797 307.904 179.399 307.625 180.065C297.425 201.065 273.245 229.686 244.425 242.975C243.338 243.49 242.459 244.358 241.931 245.438C241.404 246.518 241.259 247.746 241.52 248.919C241.782 250.092 242.435 251.142 243.371 251.895C244.308 252.649 245.473 253.061 246.675 253.065C247.443 253.079 248.205 252.922 248.905 252.605L248.875 252.595ZM180.245 378.266C180.941 378.24 181.625 378.077 182.258 377.786C182.892 377.496 183.461 377.084 183.935 376.573C184.409 376.062 184.777 375.463 185.019 374.809C185.261 374.156 185.372 373.462 185.345 372.766C183.615 326.656 189.605 289.535 203.165 262.465C214.165 240.465 227.555 229.985 236.395 223.085C237.835 221.955 239.205 220.895 240.395 219.905C273.395 192.305 291.325 167.095 300.305 135.595C303.685 123.735 303.985 111.805 303.875 102.745C303.8 101.377 303.199 100.091 302.198 99.1552C301.197 98.2197 299.873 97.7073 298.503 97.7254C297.132 97.7435 295.822 98.2906 294.846 99.2522C293.87 100.214 293.303 101.516 293.265 102.885C293.365 111.225 293.105 122.145 290.105 132.685C281.745 161.985 264.845 185.635 233.595 211.765C232.595 212.635 231.305 213.605 229.875 214.765C212.105 228.595 170.525 261.065 174.745 373.165C174.796 374.537 175.377 375.835 176.365 376.788C177.354 377.741 178.672 378.274 180.045 378.275L180.245 378.266ZM85.5548 48.7255C95.8452 40.4246 106.592 32.7058 117.745 25.6055C123.696 21.9243 130.051 18.9413 136.685 16.7155C153.425 10.9755 169.235 10.1455 187.985 14.0655C189.336 14.2848 190.719 13.9739 191.847 13.1978C192.974 12.4217 193.758 11.2403 194.035 9.90008C194.313 8.55983 194.062 7.16425 193.335 6.00449C192.608 4.84473 191.462 4.01038 190.135 3.67549C169.695 -0.584511 151.615 0.37549 133.245 6.67549C125.843 9.1672 118.753 12.5025 112.115 16.6155C100.624 23.9297 89.5505 31.8787 78.9448 40.4255C78.3661 40.8476 77.8788 41.3823 77.5122 41.9977C77.1455 42.613 76.9072 43.2961 76.8115 44.0059C76.7157 44.7158 76.7646 45.4376 76.9551 46.1281C77.1457 46.8185 77.4739 47.4633 77.9201 48.0236C78.3663 48.5838 78.9213 49.0481 79.5515 49.3883C80.1818 49.7285 80.8744 49.9377 81.5877 50.0033C82.3009 50.0689 83.0201 49.9895 83.7018 49.7699C84.3836 49.5503 85.0139 49.195 85.5548 48.7255ZM147.965 365.475C148.662 365.472 149.351 365.33 149.993 365.06C150.635 364.789 151.218 364.394 151.707 363.898C152.197 363.402 152.584 362.815 152.846 362.169C153.108 361.523 153.24 360.832 153.235 360.135C153.125 342.065 158.515 261.516 185.425 226.065C194.215 214.475 206.035 203.795 222.595 192.435C248.055 174.985 262.185 155.065 268.425 127.975C271.516 114.722 271.947 100.987 269.693 87.5651C267.439 74.1437 262.545 61.3027 255.295 49.7855C246.189 35.2017 233.615 23.0985 218.695 14.5555C217.472 13.8566 216.022 13.6721 214.663 14.0425C213.305 14.4129 212.149 15.3078 211.45 16.5305C210.751 17.7531 210.566 19.2033 210.937 20.562C211.307 21.9207 212.202 23.0766 213.425 23.7755C226.819 31.4518 238.107 42.3211 246.285 55.4155C252.792 65.753 257.184 77.2787 259.206 89.3253C261.228 101.372 260.84 113.7 258.065 125.595C252.455 149.945 239.665 167.855 216.575 183.685C199.045 195.685 186.455 207.135 176.945 219.685C164.205 236.465 154.635 263.246 148.485 299.296C143.555 328.176 142.555 353.595 142.595 360.225C142.603 361.629 143.166 362.971 144.161 363.961C145.156 364.95 146.502 365.506 147.905 365.505L147.965 365.475ZM121.565 331.065C121.565 330.275 124.995 251.535 159.335 206.305C172.135 189.445 189.085 176.465 205.335 164.615C222.335 152.235 232.525 137.865 236.485 120.675C239.322 108.364 238.815 95.5185 235.016 83.4693C231.217 71.42 224.266 60.6059 214.881 52.1476C205.497 43.6892 194.021 37.8945 181.643 35.364C169.265 32.8334 156.436 33.6591 144.485 37.7555C139.361 39.5254 134.456 41.8739 129.865 44.7555C101.937 62.1672 76.9275 83.8699 55.7548 109.065C55.3076 109.599 54.97 110.216 54.7611 110.88C54.5523 111.545 54.4764 112.244 54.5377 112.937C54.599 113.631 54.7963 114.306 55.1183 114.923C55.4404 115.54 55.8809 116.088 56.4148 116.535C56.9486 116.983 57.5652 117.32 58.2296 117.529C58.8939 117.738 59.5928 117.814 60.2864 117.753C61.6873 117.629 62.9817 116.954 63.8848 115.875C84.353 91.5038 108.537 70.5127 135.545 53.6755C145.642 47.3592 157.386 44.1789 169.291 44.5367C181.195 44.8946 192.727 48.7745 202.426 55.686C212.126 62.5974 219.559 72.2298 223.784 83.3653C228.009 94.5008 228.838 106.639 226.165 118.245C222.765 133.035 214.165 145.025 199.115 155.995C182.945 167.765 164.555 181.835 150.885 199.845C114.405 247.895 110.985 329.845 110.955 330.695C110.914 332.101 111.433 333.464 112.396 334.488C113.36 335.511 114.69 336.111 116.095 336.155H116.265C117.634 336.154 118.95 335.624 119.937 334.675C120.925 333.727 121.508 332.434 121.565 331.065ZM95.7048 271.065C102.065 239.375 114.705 210.915 133.235 186.495C148.225 166.843 166.674 150.089 187.675 137.055C196.223 131.689 202.294 123.153 204.558 113.317C206.823 103.482 205.095 93.1495 199.755 84.5855C197.039 80.2532 193.49 76.5036 189.314 73.5543C185.137 70.6051 180.416 68.515 175.425 67.4055C170.613 66.3186 165.632 66.2099 160.777 67.086C155.922 67.9622 151.293 69.8051 147.165 72.5055C119.425 90.6455 95.7848 112.165 72.7248 140.245C69.144 144.768 65.8059 149.478 62.7248 154.355L62.0048 155.455C61.5877 156.036 61.2923 156.696 61.1362 157.394C60.9802 158.091 60.9667 158.814 61.0966 159.517C61.2266 160.22 61.4972 160.89 61.8923 161.486C62.2874 162.082 62.7989 162.592 63.3959 162.986C63.993 163.379 64.6635 163.648 65.3671 163.776C66.0706 163.904 66.7928 163.889 67.4903 163.731C68.1878 163.573 68.8463 163.276 69.4261 162.858C70.006 162.439 70.4953 161.908 70.8648 161.295L71.5948 160.185C74.4758 155.621 77.6003 151.214 80.9548 146.985C103.315 119.755 126.215 98.9155 153.035 81.3955C155.984 79.47 159.29 78.1565 162.756 77.5329C166.223 76.9094 169.779 76.9884 173.215 77.7655C176.818 78.5712 180.226 80.0816 183.243 82.2097C186.26 84.3378 188.827 87.0416 190.795 90.1655C194.65 96.3413 195.898 103.795 194.263 110.889C192.628 117.984 188.244 124.14 182.075 128.005C159.988 141.717 140.585 159.338 124.815 180.005C105.295 205.715 92.0148 235.635 85.3348 268.905C85.0475 270.279 85.3167 271.711 86.0835 272.886C86.8502 274.061 88.0518 274.885 89.4248 275.175C89.7543 275.239 90.0891 275.273 90.4248 275.275C91.6566 275.295 92.8569 274.886 93.8202 274.118C94.7835 273.35 95.4497 272.271 95.7048 271.065ZM81.7048 209.065C88.662 194.07 97.2039 179.863 107.185 166.685C124.57 143.869 145.97 124.414 170.335 109.275C171.486 108.51 172.293 107.325 172.585 105.974C172.877 104.622 172.629 103.21 171.896 102.038C171.163 100.866 170.001 100.026 168.658 99.6965C167.315 99.3674 165.897 99.5751 164.705 100.275C139.243 116.1 116.877 136.432 98.7048 160.275C88.2624 174.057 79.3279 188.919 72.0548 204.605C71.7351 205.24 71.5463 205.932 71.4995 206.641C71.4527 207.35 71.5488 208.061 71.7822 208.732C72.0156 209.403 72.3815 210.02 72.8582 210.546C73.3348 211.073 73.9125 211.499 74.5568 211.798C75.2012 212.097 75.8991 212.263 76.609 212.287C77.319 212.311 78.0265 212.192 78.6896 211.937C79.3526 211.682 79.9577 211.297 80.4688 210.804C80.9799 210.31 81.3866 209.719 81.6648 209.065H81.7048ZM297.205 263.725C299.305 262.125 301.125 260.775 302.755 259.565C310.935 253.475 314.675 250.695 324.385 239.025C324.83 238.49 325.165 237.873 325.372 237.208C325.578 236.543 325.652 235.844 325.588 235.151C325.525 234.458 325.325 233.784 325.001 233.168C324.677 232.552 324.235 232.006 323.7 231.56C323.165 231.115 322.547 230.78 321.882 230.573C321.217 230.367 320.519 230.293 319.825 230.357C319.132 230.421 318.458 230.62 317.842 230.944C317.226 231.268 316.68 231.71 316.235 232.245C307.335 242.935 304.355 245.145 296.415 251.055C294.775 252.285 292.925 253.656 290.785 255.275C289.902 255.949 289.253 256.883 288.929 257.945C288.605 259.007 288.622 260.143 288.977 261.195C289.333 262.247 290.009 263.161 290.911 263.809C291.812 264.456 292.895 264.805 294.005 264.805C295.153 264.784 296.263 264.387 297.165 263.675L297.205 263.725Z" fill="url(#paint0_linear)"/>
<g opacity="0.6">
<path opacity="0.6" d="M317.443 184.06C318.518 181.337 317.183 178.259 314.46 177.183C311.738 176.108 308.659 177.444 307.584 180.166C306.509 182.889 307.844 185.967 310.567 187.042C313.289 188.118 316.368 186.782 317.443 184.06Z" fill="white"/>
<path opacity="0.6" d="M303.495 104.964C304.57 102.242 303.235 99.1629 300.512 98.0877C297.79 97.0126 294.711 98.348 293.636 101.07C292.561 103.793 293.896 106.872 296.619 107.947C299.341 109.022 302.42 107.687 303.495 104.964Z" fill="white"/>
<path opacity="0.6" d="M251.244 249.97C252.319 247.247 250.984 244.169 248.262 243.094C245.539 242.018 242.46 243.354 241.385 246.076C240.31 248.799 241.645 251.877 244.368 252.953C247.09 254.028 250.169 252.692 251.244 249.97Z" fill="white"/>
<path opacity="0.6" d="M298.913 261.443C299.988 258.72 298.652 255.641 295.93 254.566C293.207 253.491 290.129 254.827 289.054 257.549C287.979 260.271 289.314 263.35 292.036 264.425C294.759 265.5 297.838 264.165 298.913 261.443Z" fill="white"/>
<path opacity="0.6" d="M325.276 237.577C326.351 234.855 325.015 231.776 322.293 230.701C319.57 229.626 316.492 230.961 315.416 233.684C314.341 236.406 315.677 239.485 318.399 240.56C321.122 241.635 324.2 240.3 325.276 237.577Z" fill="white"/>
<path opacity="0.6" d="M320.687 311.11C321.762 308.388 320.427 305.309 317.704 304.234C314.982 303.159 311.903 304.494 310.828 307.217C309.753 309.939 311.088 313.018 313.811 314.093C316.533 315.168 319.612 313.833 320.687 311.11Z" fill="white"/>
<path opacity="0.6" d="M217.418 377.47C218.493 374.747 217.158 371.669 214.435 370.594C211.713 369.518 208.634 370.854 207.559 373.576C206.484 376.299 207.819 379.377 210.542 380.453C213.264 381.528 216.343 380.192 217.418 377.47Z" fill="white"/>
<path opacity="0.6" d="M250.17 373.443C251.245 370.72 249.91 367.641 247.187 366.566C244.465 365.491 241.386 366.827 240.311 369.549C239.236 372.271 240.571 375.35 243.294 376.425C246.016 377.5 249.095 376.165 250.17 373.443Z" fill="white"/>
<path opacity="0.6" d="M304.731 338.763C305.806 336.04 304.47 332.962 301.748 331.887C299.025 330.811 295.947 332.147 294.872 334.869C293.796 337.592 295.132 340.67 297.854 341.746C300.577 342.821 303.655 341.485 304.731 338.763Z" fill="white"/>
<path opacity="0.6" d="M185 374.907C186.075 372.185 184.74 369.106 182.017 368.031C179.295 366.956 176.216 368.291 175.141 371.014C174.066 373.736 175.401 376.815 178.124 377.89C180.846 378.965 183.925 377.63 185 374.907Z" fill="white"/>
<path opacity="0.6" d="M152.859 362.173C153.934 359.45 152.599 356.372 149.876 355.297C147.154 354.222 144.075 355.557 143 358.279C141.925 361.002 143.26 364.081 145.983 365.156C148.705 366.231 151.784 364.895 152.859 362.173Z" fill="white"/>
<path opacity="0.6" d="M121.176 332.796C122.252 330.074 120.916 326.995 118.194 325.92C115.471 324.845 112.393 326.18 111.317 328.903C110.242 331.625 111.578 334.704 114.3 335.779C117.023 336.854 120.101 335.519 121.176 332.796Z" fill="white"/>
<path opacity="0.6" d="M95.4586 271.932C96.5417 269.21 95.2128 266.125 92.4906 265.042C89.7684 263.959 86.6837 265.288 85.6006 268.01C84.5176 270.733 85.8464 273.817 88.5686 274.9C91.2908 275.983 94.3756 274.655 95.4586 271.932Z" fill="white"/>
<path opacity="0.6" d="M81.7252 208.941C82.8004 206.218 81.465 203.139 78.7425 202.064C76.02 200.989 72.9414 202.325 71.8662 205.047C70.791 207.77 72.1265 210.848 74.849 211.923C77.5714 212.998 80.6501 211.663 81.7252 208.941Z" fill="white"/>
<path opacity="0.6" d="M71.338 160.312C72.4132 157.589 71.0778 154.511 68.3553 153.435C65.6328 152.36 62.5542 153.696 61.479 156.418C60.4038 159.141 61.7392 162.219 64.4617 163.294C67.1842 164.37 70.2629 163.034 71.338 160.312Z" fill="white"/>
<path opacity="0.6" d="M172.512 106.53C173.587 103.808 172.252 100.729 169.53 99.6541C166.807 98.579 163.728 99.9144 162.653 102.637C161.578 105.359 162.914 108.438 165.636 109.513C168.359 110.588 171.437 109.253 172.512 106.53Z" fill="white"/>
<path opacity="0.6" d="M64.7394 114.421C65.8145 111.699 64.4791 108.62 61.7566 107.545C59.0341 106.47 55.9555 107.805 54.8804 110.528C53.8052 113.25 55.1406 116.329 57.8631 117.404C60.5856 118.479 63.6642 117.144 64.7394 114.421Z" fill="white"/>
<path opacity="0.6" d="M86.9899 46.673C88.065 43.9505 86.7296 40.8719 84.0071 39.7967C81.2846 38.7215 78.206 40.057 77.1308 42.7795C76.0557 45.502 77.3911 48.5806 80.1136 49.6557C82.8361 50.7309 85.9147 49.3955 86.9899 46.673Z" fill="white"/>
<path opacity="0.6" d="M193.783 10.798C194.858 8.0755 193.523 4.99689 190.801 3.92172C188.078 2.84655 184.999 4.18198 183.924 6.90448C182.849 9.62698 184.185 12.7056 186.907 13.7807C189.63 14.8559 192.708 13.5205 193.783 10.798Z" fill="white"/>
<path opacity="0.6" d="M220.987 21.1144C222.062 18.3919 220.727 15.3133 218.004 14.2381C215.282 13.1629 212.203 14.4984 211.128 17.2209C210.053 19.9434 211.388 23.022 214.111 24.0971C216.833 25.1723 219.912 23.8369 220.987 21.1144Z" fill="white"/>
</g>
<defs>
<linearGradient id="paint0_linear" x1="97.7548" y1="308.095" x2="341.835" y2="0.825501" gradientUnits="userSpaceOnUse">
<stop stop-color="#44FB44"/>
<stop offset="0.82" stop-color="#00D6FF"/>
<stop offset="1" stop-color="#A5FEF1"/>
</linearGradient>
</defs>
</svg>
