<svg width="73" height="73" viewBox="0 0 73 73" fill="none" xmlns="http://www.w3.org/2000/svg">
<path d="M0 0.0449219H72.0137V72.0449H0V0.0449219ZM69.643 69.7745V2.41331H2.36383V69.7745H69.643Z" fill="white"/>
<path d="M31.7968 11.7207C33.4859 11.7207 35.1135 11.7207 36.741 11.7207C37.023 11.7382 37.3038 11.771 37.5822 11.8187V35.0445H33.5839V17.4217L33.2808 18.1443L26.3192 35.0695H22.672C20.3766 29.4848 15.772 18.2811 15.772 18.2811L15.5007 17.62V35.0695H11.5208V11.8324H17.3699C19.7087 17.5425 24.4363 29.0973 24.4363 29.0973L24.5663 29.3412L24.6848 29.1132L31.7968 11.7207Z" fill="white"/>
<path d="M60.473 44.7502H56.2651C55.8297 44.0139 55.5037 43.2685 55.0068 42.6667C53.3656 40.6813 51.0906 40.271 48.7086 40.4647C44.5257 40.8021 41.9749 43.656 41.7744 48.0691C41.7412 48.8652 41.7824 49.6627 41.8974 50.4512C42.0686 51.7287 42.5518 52.9443 43.3043 53.9908C44.0568 55.0372 45.0554 55.8822 46.212 56.4511C47.3685 57.02 48.6474 57.2954 49.9356 57.2528C51.2238 57.2102 52.4816 56.851 53.5981 56.2069C55.1003 55.3658 56.0485 54.1234 56.452 52.2771H48.8886V48.753H60.3704V60.4057H57.3889C57.1609 59.6649 56.933 58.9537 56.705 58.165C56.5243 58.2834 56.3522 58.4145 56.1899 58.5571C54.9772 59.8085 53.4545 60.4331 51.7813 60.7568C43.8213 62.284 37.1447 56.6537 37.3544 48.541C37.4593 44.4835 38.8543 41.0392 42.2667 38.6343C46.9192 35.3564 54.4141 35.9559 58.1525 39.8857C59.4468 41.2031 60.2635 42.9153 60.473 44.7502V44.7502Z" fill="white"/>
<path d="M35.8975 53.1772L34.1537 55.2082L38.8723 60.3713H33.8437L31.5802 58.0918C31.1243 58.4861 30.6866 58.8508 30.2535 59.2087C27.974 61.0984 25.3709 61.4084 22.6446 60.5331C18.521 59.2064 17.1145 54.1505 19.9092 50.7723C20.6751 49.8605 21.6302 49.0832 22.5397 48.2079C22.0679 47.6061 21.5823 47.0294 21.1401 46.4208C20.0665 44.9459 19.5445 43.3184 19.916 41.488C20.5475 38.324 23.6818 36.2998 27.0805 36.8469C30.1851 37.3461 32.0954 39.4068 32.182 42.3177C32.2298 43.9863 31.5209 45.3335 30.3857 46.4778C29.6723 47.1981 28.9018 47.8614 28.0493 48.6478L31.6965 52.6392L34.8877 49.2838L35.8975 53.1772ZM25.0084 50.8202C23.4424 51.8733 22.1955 53.0062 22.4303 55.0008C22.5081 55.611 22.7813 56.1796 23.209 56.6217C23.6367 57.0638 24.196 57.3556 24.8033 57.4535C26.3738 57.7544 28.1564 56.8517 29.091 55.2492L25.0084 50.8202ZM25.6923 46.2612C26.5608 45.4315 27.3495 44.8274 27.9444 44.0706C28.3418 43.601 28.5449 42.9975 28.5123 42.3832C28.4797 41.7689 28.2138 41.1902 27.7689 40.7654C27.3296 40.3411 26.7546 40.0855 26.1453 40.0438C25.536 40.0021 24.9315 40.1769 24.4386 40.5374C23.4629 41.2646 23.1734 42.6231 23.8641 43.7971C24.3428 44.6017 24.9833 45.3084 25.6968 46.2521L25.6923 46.2612Z" fill="white"/>
</svg>