<svg width="381" height="381" viewBox="0 0 381 381" fill="none" xmlns="http://www.w3.org/2000/svg">
<path d="M267.271 167.546H245.041V144.156C245.041 131.276 235.101 120.826 222.821 120.826C210.541 120.826 200.601 131.276 200.601 144.156V158.106C200.569 158.855 200.689 159.603 200.954 160.305C201.219 161.007 201.623 161.648 202.142 162.189C202.661 162.731 203.284 163.161 203.974 163.456C204.663 163.75 205.406 163.902 206.156 163.902C206.906 163.902 207.648 163.75 208.338 163.456C209.028 163.161 209.651 162.731 210.17 162.189C210.689 161.648 211.093 161.007 211.358 160.305C211.622 159.603 211.742 158.855 211.711 158.106V144.156C211.647 142.658 211.887 141.162 212.417 139.758C212.947 138.355 213.755 137.073 214.793 135.99C215.831 134.907 217.077 134.046 218.457 133.457C219.836 132.868 221.321 132.565 222.821 132.565C224.321 132.565 225.805 132.868 227.185 133.457C228.564 134.046 229.811 134.907 230.849 135.99C231.887 137.073 232.695 138.355 233.224 139.758C233.754 141.162 233.994 142.658 233.931 144.156V179.156H267.271C273.401 179.156 278.381 184.386 278.381 190.826C278.381 197.266 273.381 202.496 267.271 202.496H233.931V237.496C233.994 238.995 233.754 240.491 233.224 241.894C232.695 243.298 231.887 244.579 230.849 245.662C229.811 246.745 228.564 247.607 227.185 248.195C225.805 248.784 224.321 249.088 222.821 249.088C221.321 249.088 219.836 248.784 218.457 248.195C217.077 247.607 215.831 246.745 214.793 245.662C213.755 244.579 212.947 243.298 212.417 241.894C211.887 240.491 211.647 238.995 211.711 237.496V207.216C211.65 205.784 211.038 204.43 210.003 203.438C208.968 202.446 207.589 201.892 206.156 201.892C204.722 201.892 203.344 202.446 202.308 203.438C201.273 204.43 200.661 205.784 200.601 207.216V237.546C200.601 250.426 210.551 260.876 222.821 260.876C235.091 260.876 245.041 250.426 245.041 237.546V214.156H267.271C279.541 214.156 289.491 203.716 289.491 190.826C289.491 177.936 279.541 167.546 267.271 167.546Z" fill="url(#paint0_linear)"/>
<path style="mix-blend-mode:multiply" d="M206.161 203.666C205.431 203.665 204.708 203.807 204.034 204.086C203.359 204.364 202.746 204.773 202.23 205.288C201.713 205.804 201.304 206.416 201.024 207.09C200.744 207.764 200.601 208.486 200.601 209.216V237.546C200.601 250.426 210.551 260.876 222.821 260.876V249.156C219.811 249.08 216.954 247.816 214.872 245.641C212.791 243.466 211.654 240.556 211.711 237.546V209.216C211.711 207.744 211.126 206.332 210.085 205.292C209.044 204.251 207.633 203.666 206.161 203.666Z" fill="url(#paint1_linear)"/>
<path d="M217.271 193.666C217.271 180.776 207.321 170.326 195.041 170.326H172.821V146.996C172.821 134.106 162.821 123.666 150.601 123.666C138.381 123.666 128.381 134.106 128.381 146.996V170.326H106.161C93.8807 170.326 83.9307 180.776 83.9307 193.666C83.9307 206.556 93.8807 216.996 106.161 216.996H128.381V240.326C128.381 253.216 138.381 263.666 150.601 263.666C162.871 263.666 172.821 253.216 172.821 240.326V216.996H195.041C207.321 216.996 217.271 206.546 217.271 193.666ZM195.041 205.326H161.711V240.326C161.748 241.822 161.49 243.31 160.952 244.707C160.413 246.103 159.605 247.379 158.574 248.463C157.542 249.547 156.307 250.417 154.939 251.023C153.571 251.629 152.097 251.96 150.601 251.996C149.105 251.96 147.631 251.629 146.263 251.023C144.895 250.417 143.659 249.547 142.628 248.463C141.596 247.379 140.788 246.103 140.25 244.707C139.711 243.31 139.453 241.822 139.491 240.326V205.326H106.161C103.169 205.174 100.35 203.879 98.2868 201.708C96.2232 199.537 95.0724 196.656 95.0724 193.661C95.0724 190.666 96.2232 187.785 98.2868 185.614C100.35 183.443 103.169 182.148 106.161 181.996H139.491V146.996C139.491 140.556 144.491 135.326 150.601 135.326C156.711 135.326 161.711 140.556 161.711 146.996V181.996H195.041C198.032 182.148 200.851 183.443 202.915 185.614C204.978 187.785 206.129 190.666 206.129 193.661C206.129 196.656 204.978 199.537 202.915 201.708C200.851 203.879 198.032 205.174 195.041 205.326Z" fill="url(#paint2_linear)"/>
<path d="M190.601 358.326H190.421C188.741 358.326 187.041 358.326 185.371 358.246C148.231 357.106 111.771 342.806 82.7108 317.986L82.0708 317.436C47.0708 287.556 25.6908 244.666 23.3308 199.746C23.1808 196.896 23.1108 193.996 23.1008 191.126C23.0679 169.106 27.3758 147.296 35.7782 126.942C44.1805 106.589 56.5125 88.0908 72.0689 72.5065C87.6253 56.9222 106.101 44.5571 126.44 36.1184C146.778 27.6796 168.581 23.3327 190.601 23.3262C192.59 23.3262 194.498 24.1164 195.904 25.5229C197.311 26.9294 198.101 28.837 198.101 30.8262C198.101 32.8153 197.311 34.7229 195.904 36.1295C194.498 37.536 192.59 38.3262 190.601 38.3262C170.552 38.3327 150.702 42.291 132.185 49.9747C113.667 57.6583 96.8458 68.9167 82.6826 83.106C68.5193 97.2953 57.2918 114.137 49.6421 132.669C41.9924 151.2 38.0705 171.058 38.1008 191.106C38.1008 193.716 38.1808 196.366 38.3108 198.966C40.4608 239.786 59.9608 278.816 91.8108 306.026L92.4608 306.586C118.921 329.196 152.091 342.216 185.831 343.256C187.361 343.256 188.911 343.326 190.441 343.326H190.601C231.041 343.31 269.821 327.238 298.417 298.642C327.013 270.047 343.085 231.267 343.101 190.826C343.104 181.23 342.206 171.655 340.421 162.226C340.049 160.272 340.47 158.249 341.589 156.605C342.709 154.96 344.436 153.827 346.391 153.456C348.345 153.085 350.368 153.505 352.012 154.625C353.657 155.744 354.789 157.472 355.161 159.426C357.118 169.778 358.102 180.291 358.101 190.826C358.082 235.244 340.429 277.838 309.021 309.246C277.612 340.654 235.019 358.308 190.601 358.326Z" fill="url(#paint3_linear)"/>
<path opacity="0.6" d="M190.601 38.3262C194.743 38.3262 198.101 34.9683 198.101 30.8262C198.101 26.684 194.743 23.3262 190.601 23.3262C186.458 23.3262 183.101 26.684 183.101 30.8262C183.101 34.9683 186.458 38.3262 190.601 38.3262Z" fill="white"/>
<path opacity="0.6" d="M347.771 168.334C351.913 168.334 355.271 164.976 355.271 160.834C355.271 156.692 351.913 153.334 347.771 153.334C343.628 153.334 340.271 156.692 340.271 160.834C340.271 164.976 343.628 168.334 347.771 168.334Z" fill="white"/>
<path opacity="0.6" d="M206.197 163.903C209.267 163.903 211.757 161.414 211.757 158.343C211.757 155.272 209.267 152.783 206.197 152.783C203.126 152.783 200.637 155.272 200.637 158.343C200.637 161.414 203.126 163.903 206.197 163.903Z" fill="white"/>
<defs>
<linearGradient id="paint0_linear" x1="298.111" y1="110.776" x2="175.731" y2="241.576" gradientUnits="userSpaceOnUse">
<stop stop-color="#64FF64"/>
<stop offset="1" stop-color="#6EF9E2"/>
</linearGradient>
<linearGradient id="paint1_linear" x1="219.611" y1="261.996" x2="199.171" y2="205.846" gradientUnits="userSpaceOnUse">
<stop offset="0.54" stop-color="#00E3B8" stop-opacity="0"/>
<stop offset="0.84" stop-color="#00E3B8"/>
</linearGradient>
<linearGradient id="paint2_linear" x1="260.801" y1="75.876" x2="138.431" y2="206.676" gradientUnits="userSpaceOnUse">
<stop stop-color="#00E200"/>
<stop offset="0.98" stop-color="#8CFF8C"/>
</linearGradient>
<linearGradient id="paint3_linear" x1="50.7308" y1="327.346" x2="384.161" y2="1.8962" gradientUnits="userSpaceOnUse">
<stop stop-color="#44FB44"/>
<stop offset="0.82" stop-color="#00D6FF"/>
<stop offset="1" stop-color="#A5FEF1"/>
</linearGradient>
</defs>
</svg>
